<?xml version="1.0" standalone="no"?>
<!DOCTYPE svg PUBLIC "-//W3C//DTD SVG 20010904//EN"
 "http://www.w3.org/TR/2001/REC-SVG-20010904/DTD/svg10.dtd">
<svg version="1.0" xmlns="http://www.w3.org/2000/svg"
 width="260.000000pt" height="260.000000pt" viewBox="0 0 260.000000 260.000000"
 preserveAspectRatio="xMidYMid meet">
<metadata>
Created by potrace 1.14, written by Peter Selinger 2001-2017
</metadata>
<g transform="translate(0.000000,260.000000) scale(0.100000,-0.100000)"
fill="#000000" stroke="none">
<path d="M1165 2594 c-336 -51 -600 -182 -808 -404 -226 -240 -350 -547 -351
-870 -1 -155 6 -219 34 -331 180 -703 882 -1123 1581 -945 241 61 423 166 604
350 252 256 379 577 371 936 -8 343 -137 641 -381 885 -188 188 -414 309 -671
360 -78 16 -321 28 -379 19z"/>
</g>
</svg>
